<svg id="Layer_1" data-name="Layer 1" xmlns="http://www.w3.org/2000/svg" viewBox="0 0 315.47 310.48"><rect x="21.33" y="59.36" width="272.8" height="47.52" rx="10.8" fill="#a89281" stroke="#000" stroke-miterlimit="10" stroke-width="4"/><path d="M275.12,227.3h1.82l.11,3.49a8.39,8.39,0,0,1,1-1.45,6.42,6.42,0,0,1,1.25-1.14,6.9,6.9,0,0,1,1.8-.9,6.49,6.49,0,0,1,2.09-.33,7,7,0,0,1,2.6.45,4.94,4.94,0,0,1,1.9,1.31,5.9,5.9,0,0,1,1.17,2.14,9.71,9.71,0,0,1,.4,2.87v11.53h-2V233.78a8.34,8.34,0,0,0-.29-2.18,4.15,4.15,0,0,0-.83-1.59,3.77,3.77,0,0,0-1.43-1,5.44,5.44,0,0,0-2-.32,5.17,5.17,0,0,0-1.93.36,6.37,6.37,0,0,0-1.66,1,5.88,5.88,0,0,0-1.2,1.33,6.56,6.56,0,0,0-.8,1.64v12.27h-2Z" transform="translate(-148.27 -152.45)"/><path d="M307.47,244a12.87,12.87,0,0,1-.13-1.38,7,7,0,0,1-1.2,1.24,6.91,6.91,0,0,1-1.49.93,8.06,8.06,0,0,1-1.75.61,8.54,8.54,0,0,1-1.91.21,7.15,7.15,0,0,1-2.33-.37,5.51,5.51,0,0,1-1.88-1,4.82,4.82,0,0,1-1.26-1.6,4.63,4.63,0,0,1-.46-2.1,4.84,4.84,0,0,1,.68-2.62,5.63,5.63,0,0,1,1.85-1.78,8.8,8.8,0,0,1,2.66-1,17.25,17.25,0,0,1,3.19-.32h3.89v-2a4.32,4.32,0,0,0-.4-1.78,3.66,3.66,0,0,0-1-1.29,4.83,4.83,0,0,0-1.57-.79,6.69,6.69,0,0,0-1.94-.27,6.47,6.47,0,0,0-1.83.25,5.07,5.07,0,0,0-1.56.71,3.91,3.91,0,0,0-1.08,1.14,2.91,2.91,0,0,0-.44,1.52l-2,0a4.42,4.42,0,0,1,.61-2.11,5.82,5.82,0,0,1,1.5-1.68,7.48,7.48,0,0,1,2.19-1.09,8.67,8.67,0,0,1,2.67-.4,9.21,9.21,0,0,1,2.67.37,6.45,6.45,0,0,1,2.16,1.08,5.37,5.37,0,0,1,1.45,1.84,5.84,5.84,0,0,1,.55,2.55v8.69a10.17,10.17,0,0,0,.16,1.82,15.44,15.44,0,0,0,.39,1.75v.2h-2.11A8.27,8.27,0,0,1,307.47,244Zm-4.28-.41a7.08,7.08,0,0,0,1.74-.72,6.12,6.12,0,0,0,1.4-1.11,6,6,0,0,0,1-1.45v-4h-3.61a16.54,16.54,0,0,0-2.79.25,6.06,6.06,0,0,0-2.27.83,3.69,3.69,0,0,0-1.2,1.19,3.16,3.16,0,0,0-.44,1.7,3.05,3.05,0,0,0,.34,1.46,3.28,3.28,0,0,0,.89,1.1,3.84,3.84,0,0,0,1.33.7,5.4,5.4,0,0,0,1.63.24A7.17,7.17,0,0,0,303.19,243.58Z" transform="translate(-148.27 -152.45)"/><path d="M314.33,227.3h2.07l5.92,14.55.38,1.11.4-1.1L329,227.3h2l-7.53,18h-1.6Z" transform="translate(-148.27 -152.45)"/><rect x="21.33" y="122.33" width="272.8" height="163.12" rx="24.02" fill="#192227" stroke="#000" stroke-miterlimit="10" stroke-width="4"/><path d="M259.55,309.55a4.57,4.57,0,0,0,1.47-.84,4.2,4.2,0,0,0,1-1.32,4.57,4.57,0,0,0,.47-1.73h1.72a6,6,0,0,1-.61,2.34,6.06,6.06,0,0,1-1.42,1.86,6.46,6.46,0,0,1-2,1.24,6.58,6.58,0,0,1-2.39.44,6.23,6.23,0,0,1-3.11-.75,6.68,6.68,0,0,1-2.22-2,8.5,8.5,0,0,1-1.33-2.85,12.91,12.91,0,0,1-.46-3.36v-.7a13,13,0,0,1,.46-3.35,8.7,8.7,0,0,1,1.33-2.87,6.55,6.55,0,0,1,2.2-2,6.26,6.26,0,0,1,3.12-.75,6.7,6.7,0,0,1,2.53.47,6.12,6.12,0,0,1,2,1.32,6.22,6.22,0,0,1,1.35,2,7.36,7.36,0,0,1,.56,2.55h-1.72a5.63,5.63,0,0,0-.43-1.86,5,5,0,0,0-1-1.49,4.72,4.72,0,0,0-3.3-1.31,4.48,4.48,0,0,0-2.43.63,5.14,5.14,0,0,0-1.64,1.64,8.07,8.07,0,0,0-.93,2.34,11.74,11.74,0,0,0-.29,2.64v.7a11.87,11.87,0,0,0,.29,2.67,7.46,7.46,0,0,0,.93,2.31,5,5,0,0,0,1.64,1.66,4.52,4.52,0,0,0,2.44.63A5,5,0,0,0,259.55,309.55Z" transform="translate(-148.27 -152.45)" fill="#f2f2f2"/><path d="M280.76,309.93c-.06-.46-.09-.92-.11-1.38a7.58,7.58,0,0,1-1.1,1.24,6.62,6.62,0,0,1-1.37.93,6.79,6.79,0,0,1-1.59.61,7.23,7.23,0,0,1-1.75.21,6.19,6.19,0,0,1-2.13-.37,5.17,5.17,0,0,1-1.73-1,4.93,4.93,0,0,1-1.15-1.6,5.63,5.63,0,0,1,.21-4.72,5.39,5.39,0,0,1,1.68-1.78,7.51,7.51,0,0,1,2.44-1,13.82,13.82,0,0,1,2.92-.32h3.55v-2a4.48,4.48,0,0,0-.36-1.78,3.56,3.56,0,0,0-.95-1.29,4.32,4.32,0,0,0-1.43-.79,5.72,5.72,0,0,0-1.78-.27,5.51,5.51,0,0,0-1.68.25,4.51,4.51,0,0,0-1.42.71,3.88,3.88,0,0,0-1,1.14,3,3,0,0,0-.4,1.52l-1.82,0a4.87,4.87,0,0,1,.56-2.11,5.85,5.85,0,0,1,1.38-1.68,6.53,6.53,0,0,1,2-1.09,7.28,7.28,0,0,1,2.45-.4,8,8,0,0,1,2.43.36,5.92,5.92,0,0,1,2,1.08,5.42,5.42,0,0,1,1.32,1.85,6.3,6.3,0,0,1,.51,2.55v8.69a12.5,12.5,0,0,0,.14,1.82c.1.61.22,1.19.36,1.75v.19H281A7.93,7.93,0,0,1,280.76,309.93Zm-3.91-.41a6.2,6.2,0,0,0,1.59-.72,5.91,5.91,0,0,0,1.28-1.11,5.62,5.62,0,0,0,.91-1.45v-3.95h-3.3a14,14,0,0,0-2.55.25,5.21,5.21,0,0,0-2.07.83,3.57,3.57,0,0,0-1.1,1.19,3.34,3.34,0,0,0-.4,1.7,3.43,3.43,0,0,0,.3,1.46,3.2,3.2,0,0,0,.82,1.09,3.44,3.44,0,0,0,1.22.71,4.56,4.56,0,0,0,1.49.24A6,6,0,0,0,276.85,309.52Z" transform="translate(-148.27 -152.45)" fill="#f2f2f2"/><path d="M288.34,293.24H290l.1,3.49a8.54,8.54,0,0,1,.89-1.45,6.52,6.52,0,0,1,1.15-1.14,6.23,6.23,0,0,1,1.64-.9,5.53,5.53,0,0,1,1.92-.33,5.94,5.94,0,0,1,2.38.45,4.48,4.48,0,0,1,1.73,1.31,6.06,6.06,0,0,1,1.07,2.14,10.48,10.48,0,0,1,.36,2.87V311.2h-1.79V299.72a8.84,8.84,0,0,0-.27-2.18,4.36,4.36,0,0,0-.76-1.59,3.43,3.43,0,0,0-1.31-1,4.57,4.57,0,0,0-1.85-.32,4.38,4.38,0,0,0-1.77.36,5.57,5.57,0,0,0-2.62,2.29,7,7,0,0,0-.72,1.64V311.2h-1.82Z" transform="translate(-148.27 -152.45)" fill="#f2f2f2"/><path d="M305.62,293.24h1.9l5.41,14.54.35,1.12.36-1.1L319,293.24h1.87l-6.88,18h-1.46Z" transform="translate(-148.27 -152.45)" fill="#f2f2f2"/><path d="M336.51,309.93c-.06-.46-.09-.92-.12-1.38a7.08,7.08,0,0,1-1.09,1.24,6.62,6.62,0,0,1-1.37.93,6.87,6.87,0,0,1-1.6.61,7.09,7.09,0,0,1-1.74.21,6.19,6.19,0,0,1-2.13-.37,5.17,5.17,0,0,1-1.73-1,4.93,4.93,0,0,1-1.15-1.6,5.63,5.63,0,0,1,.21-4.72,5.39,5.39,0,0,1,1.68-1.78,7.51,7.51,0,0,1,2.44-1,13.82,13.82,0,0,1,2.92-.32h3.55v-2a4.48,4.48,0,0,0-.36-1.78,3.47,3.47,0,0,0-1-1.29,4.27,4.27,0,0,0-1.42-.79,5.72,5.72,0,0,0-1.78-.27,5.47,5.47,0,0,0-1.68.25,4.51,4.51,0,0,0-1.42.71,3.88,3.88,0,0,0-1,1.14,3,3,0,0,0-.4,1.52l-1.82,0a4.87,4.87,0,0,1,.56-2.11,5.69,5.69,0,0,1,1.38-1.68,6.53,6.53,0,0,1,2-1.09,7.26,7.26,0,0,1,2.44-.4,8,8,0,0,1,2.44.36,6,6,0,0,1,2,1.08,5.56,5.56,0,0,1,1.32,1.85,6.3,6.3,0,0,1,.51,2.55v8.69a12.5,12.5,0,0,0,.14,1.82c.1.61.22,1.19.36,1.75v.19h-1.93A7.93,7.93,0,0,1,336.51,309.93Zm-3.91-.41a6.36,6.36,0,0,0,1.59-.72,5.91,5.91,0,0,0,1.28-1.11,5.62,5.62,0,0,0,.91-1.45v-3.95h-3.3a13.87,13.87,0,0,0-2.55.25,5.21,5.21,0,0,0-2.07.83,3.57,3.57,0,0,0-1.1,1.19,3.34,3.34,0,0,0-.4,1.7,3.43,3.43,0,0,0,.3,1.46,3.2,3.2,0,0,0,.82,1.09,3.44,3.44,0,0,0,1.22.71,4.52,4.52,0,0,0,1.49.24A6,6,0,0,0,332.6,309.52Z" transform="translate(-148.27 -152.45)" fill="#f2f2f2"/><path d="M355.18,305.25a3.15,3.15,0,0,0-.93-1,6.31,6.31,0,0,0-1.58-.8,16.85,16.85,0,0,0-1.91-.56,22.08,22.08,0,0,1-2.3-.65,9.26,9.26,0,0,1-1.95-.95,4.36,4.36,0,0,1-1.37-1.4,3.89,3.89,0,0,1-.52-2.08,4.09,4.09,0,0,1,.52-2.08,5.08,5.08,0,0,1,1.4-1.56,6.46,6.46,0,0,1,1.94-.93,8.1,8.1,0,0,1,2.3-.33,8.29,8.29,0,0,1,2.47.36,6.17,6.17,0,0,1,2,1,5.19,5.19,0,0,1,1.94,4H355.4a3.16,3.16,0,0,0-.41-1.54,3.82,3.82,0,0,0-1-1.15,4.78,4.78,0,0,0-1.47-.71,5.74,5.74,0,0,0-1.7-.25,6.51,6.51,0,0,0-1.61.19,4.35,4.35,0,0,0-1.39.59,3.06,3.06,0,0,0-1,1,2.49,2.49,0,0,0-.37,1.37,2.65,2.65,0,0,0,.33,1.35,2.55,2.55,0,0,0,1,1,5.77,5.77,0,0,0,1.52.69c.6.19,1.22.35,1.86.49a20.49,20.49,0,0,1,2.37.69,8.64,8.64,0,0,1,2,1,4.67,4.67,0,0,1,1.36,1.48,4.18,4.18,0,0,1,.5,2.1,4.29,4.29,0,0,1-.49,2.08,4.62,4.62,0,0,1-1.25,1.51,6.19,6.19,0,0,1-2.18,1.08,9.33,9.33,0,0,1-2.51.35,8.72,8.72,0,0,1-2.63-.39,6.77,6.77,0,0,1-2.15-1.07,5.14,5.14,0,0,1-1.47-1.68,5,5,0,0,1-.58-2.24h1.8a3.51,3.51,0,0,0,1.8,2.9,4.7,4.7,0,0,0,1.55.61,8,8,0,0,0,1.68.17,6.73,6.73,0,0,0,2-.29,4.66,4.66,0,0,0,1.65-.87,3,3,0,0,0,.7-.9,2.71,2.71,0,0,0,.25-1.16A2.78,2.78,0,0,0,355.18,305.25Z" transform="translate(-148.27 -152.45)" fill="#f2f2f2"/><line x1="21.33" y1="171.32" x2="294.13" y2="171.32" fill="none" stroke="#000" stroke-miterlimit="10" stroke-width="4"/><path d="M256.89,352.15a7.58,7.58,0,0,1-.34,1.46,6.3,6.3,0,0,1-.68,1.46,4.78,4.78,0,0,1-1,1.13,4.65,4.65,0,0,1-1.14.62,4.09,4.09,0,0,1-1.39.22,4.4,4.4,0,0,1-2.34-.65,4.21,4.21,0,0,1-.71-.55,4.32,4.32,0,0,1-.58-.69l0,1.66h-1.22v-18h1.31v7.08a4.09,4.09,0,0,1,.64-.8,4.17,4.17,0,0,1,.78-.62,4.3,4.3,0,0,1,1-.42,4.24,4.24,0,0,1,1.14-.15,4.33,4.33,0,0,1,1.48.24,4,4,0,0,1,1.19.68,4.67,4.67,0,0,1,.87,1,7.19,7.19,0,0,1,.64,1.27,9.37,9.37,0,0,1,.39,1.56,11.93,11.93,0,0,1,.13,1.7v.25A10,10,0,0,1,256.89,352.15Zm-1.28-3a8,8,0,0,0-.24-1.2,6.2,6.2,0,0,0-.52-1.17,2.85,2.85,0,0,0-.77-.91,3,3,0,0,0-2-.69,3.48,3.48,0,0,0-1.13.18,3.44,3.44,0,0,0-.94.52,3.81,3.81,0,0,0-.75.8,3.75,3.75,0,0,0-.51,1v5.84a3.41,3.41,0,0,0,.54,1,3.18,3.18,0,0,0,.78.73,3.13,3.13,0,0,0,.95.47,3.91,3.91,0,0,0,1.08.15,3.19,3.19,0,0,0,1.15-.19,2.76,2.76,0,0,0,.89-.54,3.22,3.22,0,0,0,.75-.92,5.57,5.57,0,0,0,.5-1.17,7.57,7.57,0,0,0,.23-1.17c0-.41.08-.82.09-1.22v-.25C255.69,349.94,255.66,349.52,255.61,349.1Z" transform="translate(-148.27 -152.45)" fill="#f2f2f2"/><path d="M269.71,344a4,4,0,0,1,.85.18l-.18,1.36c-.3-.07-.61-.12-.91-.16a7.46,7.46,0,0,0-1-.06,6,6,0,0,0-1.56.2,4,4,0,0,0-1.32.64,4.12,4.12,0,0,0-1,1.06,4.76,4.76,0,0,0-.63,1.52v8.11H262.7V344.13H264l.08,2v.56a5.08,5.08,0,0,1,1.89-2,5.16,5.16,0,0,1,2.81-.72A8.18,8.18,0,0,1,269.71,344Z" transform="translate(-148.27 -152.45)" fill="#f2f2f2"/><path d="M277.19,356.55a5.31,5.31,0,0,1-1.74-1.33,6.33,6.33,0,0,1-1.15-2,7.09,7.09,0,0,1-.4-2.41v-.5a7.5,7.5,0,0,1,.41-2.53,6.34,6.34,0,0,1,1.14-2,5.35,5.35,0,0,1,1.67-1.36,4.5,4.5,0,0,1,2.09-.49,4.61,4.61,0,0,1,2.08.45,4.42,4.42,0,0,1,1.54,1.23,5.46,5.46,0,0,1,.95,1.86,8.3,8.3,0,0,1,.33,2.27v.85H275.2V351a6.34,6.34,0,0,0,.36,1.88,4.88,4.88,0,0,0,.86,1.53,4.26,4.26,0,0,0,1.34,1.08,3.72,3.72,0,0,0,1.74.41,4.34,4.34,0,0,0,2-.43,4.39,4.39,0,0,0,1.53-1.29l.82.66a4.86,4.86,0,0,1-1.79,1.63,5.21,5.21,0,0,1-2.6.62A5.16,5.16,0,0,1,277.19,356.55Zm.53-11.13a3.64,3.64,0,0,0-1.17.89,4.88,4.88,0,0,0-.84,1.36,6.54,6.54,0,0,0-.45,1.7h7.54v-.13a4.83,4.83,0,0,0-.26-1.54,4.46,4.46,0,0,0-.71-1.33,3.57,3.57,0,0,0-1.12-.92,3.19,3.19,0,0,0-1.5-.35A3.46,3.46,0,0,0,277.72,345.42Z" transform="translate(-148.27 -152.45)" fill="#f2f2f2"/><path d="M295.87,355.91c0-.32-.06-.65-.08-1a4.87,4.87,0,0,1-1.79,1.54,5.21,5.21,0,0,1-1.16.43,5.32,5.32,0,0,1-1.27.14,4.62,4.62,0,0,1-1.55-.25,4,4,0,0,1-1.25-.73,3.51,3.51,0,0,1-.84-1.13,3.56,3.56,0,0,1-.31-1.48,3.61,3.61,0,0,1,.46-1.86,3.76,3.76,0,0,1,1.23-1.25,5.4,5.4,0,0,1,1.77-.68,9.7,9.7,0,0,1,2.12-.23h2.58V348a3.08,3.08,0,0,0-.26-1.26,2.44,2.44,0,0,0-.7-.91,3.2,3.2,0,0,0-1-.56,4.17,4.17,0,0,0-1.3-.19,4.49,4.49,0,0,0-1.22.17,3.54,3.54,0,0,0-1,.51,2.9,2.9,0,0,0-.72.8,2.17,2.17,0,0,0-.29,1.07h-1.32a3.32,3.32,0,0,1,.41-1.49,4,4,0,0,1,1-1.18,4.68,4.68,0,0,1,1.45-.77,5.49,5.49,0,0,1,1.78-.28,6,6,0,0,1,1.77.25,4.33,4.33,0,0,1,1.44.77,3.83,3.83,0,0,1,1,1.3,4.34,4.34,0,0,1,.37,1.8v6.13a8,8,0,0,0,.1,1.29c.07.43.16.84.26,1.23v.14h-1.4A4.94,4.94,0,0,1,295.87,355.91Zm-2.84-.29a4.65,4.65,0,0,0,1.16-.51,4.38,4.38,0,0,0,.93-.78,4.24,4.24,0,0,0,.66-1v-2.79h-2.4a9.94,9.94,0,0,0-1.85.17,4,4,0,0,0-1.51.59,2.47,2.47,0,0,0-.8.84,2.37,2.37,0,0,0-.29,1.2,2.47,2.47,0,0,0,.22,1,2.39,2.39,0,0,0,.6.77,2.46,2.46,0,0,0,.88.5,3.49,3.49,0,0,0,1.08.17A4.39,4.39,0,0,0,293,355.62Z" transform="translate(-148.27 -152.45)" fill="#f2f2f2"/><path d="M301.29,347.94a7.17,7.17,0,0,1,.85-2,4.49,4.49,0,0,1,1.48-1.46,3.88,3.88,0,0,1,2.11-.55,4,4,0,0,1,2,.52,4.19,4.19,0,0,1,1.5,1.43v-7h1.3v18h-1.22l0-1.62a4.13,4.13,0,0,1-1.56,1.38,4.42,4.42,0,0,1-2,.47,3.81,3.81,0,0,1-2.07-.55,4.62,4.62,0,0,1-1.47-1.45,7,7,0,0,1-.87-2.05,9.49,9.49,0,0,1-.3-2.39v-.25A10.07,10.07,0,0,1,301.29,347.94Zm1.22,4.53a5.93,5.93,0,0,0,.61,1.67,3.82,3.82,0,0,0,1.13,1.2,2.89,2.89,0,0,0,1.7.47,3.56,3.56,0,0,0,2-.58,3.53,3.53,0,0,0,1.32-1.62v-6.08a4,4,0,0,0-1.27-1.74,3.24,3.24,0,0,0-2-.66,3,3,0,0,0-1.72.46,3.67,3.67,0,0,0-1.13,1.22,5.88,5.88,0,0,0-.61,1.68,9,9,0,0,0-.19,1.86v.25A9.06,9.06,0,0,0,302.51,352.47Z" transform="translate(-148.27 -152.45)" fill="#f2f2f2"/><path d="M321,355.64a3.19,3.19,0,0,0,1.07-.59,3.08,3.08,0,0,0,.75-.93,3.2,3.2,0,0,0,.34-1.22h1.25a4.21,4.21,0,0,1-.44,1.65,4.4,4.4,0,0,1-1,1.31,4.5,4.5,0,0,1-1.46.87,4.83,4.83,0,0,1-1.74.31,4.66,4.66,0,0,1-2.26-.52,4.81,4.81,0,0,1-1.62-1.42,6.06,6.06,0,0,1-1-2,9.29,9.29,0,0,1-.33-2.37v-.5a9.27,9.27,0,0,1,.33-2.36,6.16,6.16,0,0,1,1-2,4.53,4.53,0,0,1,3.87-1.93,5,5,0,0,1,1.84.33,4.34,4.34,0,0,1,1.46.93,4.47,4.47,0,0,1,1,1.43,4.94,4.94,0,0,1,.41,1.81h-1.25a4,4,0,0,0-.31-1.32,3.15,3.15,0,0,0-1.8-1.73,3.34,3.34,0,0,0-1.32-.25,3.27,3.27,0,0,0-1.76.45,3.6,3.6,0,0,0-1.2,1.16,5.25,5.25,0,0,0-.67,1.65,7.76,7.76,0,0,0-.22,1.86v.5a7.92,7.92,0,0,0,.22,1.88,5,5,0,0,0,.67,1.63,3.53,3.53,0,0,0,1.2,1.17,3.28,3.28,0,0,0,1.77.45A3.79,3.79,0,0,0,321,355.64Z" transform="translate(-148.27 -152.45)" fill="#f2f2f2"/><path d="M337.26,344a4.08,4.08,0,0,1,.84.18l-.18,1.36a9.1,9.1,0,0,0-.91-.16,7.34,7.34,0,0,0-.95-.06,6,6,0,0,0-1.56.2,4,4,0,0,0-1.32.64,4.3,4.3,0,0,0-1,1.06,5.26,5.26,0,0,0-.63,1.52v8.11h-1.35V344.13h1.25l.08,2v.56a5.08,5.08,0,0,1,1.89-2,5.18,5.18,0,0,1,2.81-.72A8.47,8.47,0,0,1,337.26,344Z" transform="translate(-148.27 -152.45)" fill="#f2f2f2"/><path d="M349.91,354.81A4.2,4.2,0,0,1,346,357a4.13,4.13,0,0,1-1.74-.34,3.53,3.53,0,0,1-1.27-1,4.51,4.51,0,0,1-.78-1.6,8,8,0,0,1-.27-2.18v-7.79h1.3V352a7.48,7.48,0,0,0,.19,1.68,3.32,3.32,0,0,0,.54,1.2,2.2,2.2,0,0,0,.89.74,3.18,3.18,0,0,0,1.28.24,4.39,4.39,0,0,0,1.4-.2,3.61,3.61,0,0,0,1.1-.58,3.36,3.36,0,0,0,.74-.85,4,4,0,0,0,.46-1.12v-8.93h1.32v12.68H350Z" transform="translate(-148.27 -152.45)" fill="#f2f2f2"/><path d="M355.5,345.56a3,3,0,0,1,1-1.19,2.79,2.79,0,0,1,1.61-.47,3.07,3.07,0,0,1,1,.13,2.24,2.24,0,0,1,.7.38,1.94,1.94,0,0,1,.43.51,2.85,2.85,0,0,1,.29.64,3.17,3.17,0,0,1,.41-.62,2.71,2.71,0,0,1,.55-.52,3.45,3.45,0,0,1,.77-.38,2.85,2.85,0,0,1,.94-.14,2.78,2.78,0,0,1,1.28.27,2,2,0,0,1,.82.75,3.11,3.11,0,0,1,.48,1.11,6.6,6.6,0,0,1,.14,1.36v9.42H364.6v-9.43a4.65,4.65,0,0,0-.08-.82,2,2,0,0,0-.26-.74,1.65,1.65,0,0,0-.54-.51,1.67,1.67,0,0,0-.88-.18,2.14,2.14,0,0,0-.93.18,1.78,1.78,0,0,0-.62.44,1.87,1.87,0,0,0-.39.61,4,4,0,0,0-.22.69v9.76h-1.23v-9.56a4.15,4.15,0,0,0-.08-.79,1.9,1.9,0,0,0-.27-.7,1.42,1.42,0,0,0-.53-.47,1.76,1.76,0,0,0-.87-.16,2.22,2.22,0,0,0-.94.19,1.79,1.79,0,0,0-.63.49,2.27,2.27,0,0,0-.35.63,7.17,7.17,0,0,0-.22.71v9.66h-1.24V344.13h1.18Z" transform="translate(-148.27 -152.45)" fill="#f2f2f2"/><path d="M378.47,352.15a8.41,8.41,0,0,1-.34,1.46,6.77,6.77,0,0,1-.69,1.46,4.57,4.57,0,0,1-1,1.13,4.48,4.48,0,0,1-1.14.62,4.08,4.08,0,0,1-1.38.22,4.24,4.24,0,0,1-1.25-.17,4.11,4.11,0,0,1-1.09-.48,4.24,4.24,0,0,1-1.29-1.24l-.06,1.66H369v-18h1.31v7.08a5,5,0,0,1,.64-.8,4.17,4.17,0,0,1,.78-.62,4.49,4.49,0,0,1,1-.42,4.24,4.24,0,0,1,1.14-.15,4.39,4.39,0,0,1,1.49.24,4.1,4.1,0,0,1,1.19.68,4.63,4.63,0,0,1,.86,1,6.57,6.57,0,0,1,.64,1.27,7.74,7.74,0,0,1,.39,1.56,11.93,11.93,0,0,1,.14,1.7v.25A13.31,13.31,0,0,1,378.47,352.15Zm-1.29-3a8,8,0,0,0-.24-1.2,5.6,5.6,0,0,0-.51-1.17,3,3,0,0,0-.78-.91,3.17,3.17,0,0,0-.88-.51,3.31,3.31,0,0,0-1.13-.18,3.37,3.37,0,0,0-1.12.18,3.44,3.44,0,0,0-.94.52,3.85,3.85,0,0,0-.76.8,4.42,4.42,0,0,0-.51,1v5.84a3.41,3.41,0,0,0,.54,1,3.58,3.58,0,0,0,.78.73,3.24,3.24,0,0,0,.95.47,3.93,3.93,0,0,0,1.09.15,3.17,3.17,0,0,0,1.14-.19,2.92,2.92,0,0,0,.9-.54,3.59,3.59,0,0,0,.75-.92A5.55,5.55,0,0,0,377,353a7.58,7.58,0,0,0,.24-1.17c.05-.41.07-.82.08-1.22v-.25C377.26,349.94,377.23,349.52,377.18,349.1Z" transform="translate(-148.27 -152.45)" fill="#f2f2f2"/><rect x="2" y="34.16" width="311.47" height="274.32" rx="33.79" fill="none" stroke="#000" stroke-miterlimit="10" stroke-width="4"/><path d="M271.69,178.7a6.64,6.64,0,0,1-3.83-1.09,6.92,6.92,0,0,1-2.44-3.08,11.83,11.83,0,0,1-.84-4.66v-.35a13.6,13.6,0,0,1,.84-5,7.28,7.28,0,0,1,2.45-3.29,6.39,6.39,0,0,1,3.85-1.17,6.84,6.84,0,0,1,3.38.79,6.74,6.74,0,0,1,2.37,2.23v-9l-2.81-.21v-1.47h4.88v24.24l2.8.22v1.44h-4.65l-.15-2.54a6.37,6.37,0,0,1-2.39,2.13A7.44,7.44,0,0,1,271.69,178.7Zm.37-1.71a6,6,0,0,0,3.36-.88,5.62,5.62,0,0,0,2.05-2.39v-8.38a6.43,6.43,0,0,0-2-2.57,5.4,5.4,0,0,0-3.41-1,4.56,4.56,0,0,0-3,1,5.9,5.9,0,0,0-1.82,2.72,12.15,12.15,0,0,0-.61,4.05v.35a8.92,8.92,0,0,0,1.35,5.19A4.61,4.61,0,0,0,272.06,177Z" transform="translate(-148.27 -152.45)"/><path d="M293.53,178.7a7.68,7.68,0,0,1-7.07-4.22,9.79,9.79,0,0,1-1-4.58V169a9.88,9.88,0,0,1,1-4.59,8.11,8.11,0,0,1,2.8-3.18,7,7,0,0,1,3.93-1.16,7.69,7.69,0,0,1,3.92.94,6.3,6.3,0,0,1,2.49,2.67,8.81,8.81,0,0,1,.87,4v1.69H287.56l0,.73a8.27,8.27,0,0,0,.76,3.56,5.93,5.93,0,0,0,2.1,2.45,5.54,5.54,0,0,0,3.14.9,8.16,8.16,0,0,0,3.09-.54A7.66,7.66,0,0,0,299,175l.88,1.36a9.09,9.09,0,0,1-2.62,1.66A9.57,9.57,0,0,1,293.53,178.7Zm-5.83-11h10.71v-.49a6.17,6.17,0,0,0-.63-2.83,4.74,4.74,0,0,0-1.79-2,5.23,5.23,0,0,0-2.8-.72,4.75,4.75,0,0,0-2.67.78,5.87,5.87,0,0,0-1.94,2.1,7.89,7.89,0,0,0-.92,3Z" transform="translate(-148.27 -152.45)"/><path d="M310.41,178.67a4,4,0,0,1-3.05-1.17,5.47,5.47,0,0,1-1.09-3.78V162h-3.21v-1.61h3.21v-4.62h2.07v4.62h4.34V162h-4.34v11.72a4,4,0,0,0,.66,2.58,2.19,2.19,0,0,0,1.77.79,8.77,8.77,0,0,0,1.15-.07l1.17-.16.31,1.43a9.5,9.5,0,0,1-1.41.28A14,14,0,0,1,310.41,178.67Z" transform="translate(-148.27 -152.45)"/><path d="M322,178.7a5.93,5.93,0,0,1-4.15-1.36,4.74,4.74,0,0,1-1.5-3.69,4.59,4.59,0,0,1,1-2.91,6.48,6.48,0,0,1,2.83-2,12.36,12.36,0,0,1,4.35-.7h3.86V166a4.23,4.23,0,0,0-1.2-3.13,4.94,4.94,0,0,0-3.61-1.18,6.62,6.62,0,0,0-2.43.42,6.93,6.93,0,0,0-1.87,1.07l-.17,2.74h-1.71V162.2a9.63,9.63,0,0,1,2.74-1.57,9.92,9.92,0,0,1,3.48-.57,7.33,7.33,0,0,1,5.06,1.59,5.65,5.65,0,0,1,1.77,4.42v8.66c0,.36,0,.71,0,1.06a9.2,9.2,0,0,0,.12,1l2.22.08v1.44h-4.06c-.14-.65-.24-1.18-.29-1.57a13.08,13.08,0,0,1-.09-1.35,7.91,7.91,0,0,1-2.69,2.36A7.57,7.57,0,0,1,322,178.7Zm.24-1.74a7.37,7.37,0,0,0,3.63-1,6.13,6.13,0,0,0,2.52-2.58v-3.79h-3.88a7.44,7.44,0,0,0-4.47,1.19,3.51,3.51,0,0,0-1.62,2.91,3,3,0,0,0,1,2.34A4.1,4.1,0,0,0,322.2,177Z" transform="translate(-148.27 -152.45)"/><path d="M335.42,178.35v-1.44l2.81-.22V162.07l-2.81-.22v-1.46h4.88v16.3l2.8.22v1.44Zm2.57-23v-2.88h2.31v2.88Z" transform="translate(-148.27 -152.45)"/><path d="M346.17,178.35v-1.44l2.8-.22V154.13l-2.8-.21v-1.47H351v24.24l2.81.22v1.44Z" transform="translate(-148.27 -152.45)"/><line x1="21.33" y1="217.76" x2="294.13" y2="217.76" fill="none" stroke="#000" stroke-miterlimit="10" stroke-width="4"/><path d="M289.45,407.32q-.09-.69-.12-1.38a7,7,0,0,1-1.13,1.24,6.62,6.62,0,0,1-1.41.93,7,7,0,0,1-1.64.61,7.52,7.52,0,0,1-1.8.21,6.34,6.34,0,0,1-2.19-.37,5.14,5.14,0,0,1-1.78-1,4.73,4.73,0,0,1-1.18-1.6,4.9,4.9,0,0,1-.44-2.1,5,5,0,0,1,.65-2.62,5.38,5.38,0,0,1,1.74-1.78,8,8,0,0,1,2.5-1,15.42,15.42,0,0,1,3-.32h3.66v-2a4.31,4.31,0,0,0-.38-1.78,3.41,3.41,0,0,0-1-1.29,4.32,4.32,0,0,0-1.47-.79,6,6,0,0,0-1.83-.27,5.84,5.84,0,0,0-1.73.25,4.72,4.72,0,0,0-1.46.71,3.71,3.71,0,0,0-1,1.14,3.08,3.08,0,0,0-.41,1.52l-1.87,0a4.63,4.63,0,0,1,.58-2.11,5.65,5.65,0,0,1,1.41-1.68,6.8,6.8,0,0,1,2.07-1.09,7.63,7.63,0,0,1,2.51-.4,8.19,8.19,0,0,1,2.51.37,5.86,5.86,0,0,1,2,1.08,5.39,5.39,0,0,1,1.36,1.84,6.14,6.14,0,0,1,.52,2.55v8.69a11.17,11.17,0,0,0,.15,1.82c.1.61.22,1.19.36,1.75l0,.2h-2A8.28,8.28,0,0,1,289.45,407.32Zm-4-.41a6.38,6.38,0,0,0,1.64-.72,5.9,5.9,0,0,0,1.32-1.11,5.73,5.73,0,0,0,.94-1.45v-3.95h-3.4a15.75,15.75,0,0,0-2.63.25,5.49,5.49,0,0,0-2.13.83A3.56,3.56,0,0,0,280,402a3.25,3.25,0,0,0-.41,1.7,3.29,3.29,0,0,0,.31,1.46,3.39,3.39,0,0,0,.84,1.1,3.72,3.72,0,0,0,1.25.7,4.91,4.91,0,0,0,1.54.24A6.33,6.33,0,0,0,285.42,406.91Z" transform="translate(-148.27 -152.45)" fill="#f2f2f2"/><path d="M297.32,390.63h1.73l.06,2.48A6.47,6.47,0,0,1,300,392a6.12,6.12,0,0,1,2.55-1.48,6.53,6.53,0,0,1,1.67-.22,5.77,5.77,0,0,1,2.85.67,6.11,6.11,0,0,1,2,1.85,9,9,0,0,1,1.33,3,15.25,15.25,0,0,1,.44,3.61v.35a13.92,13.92,0,0,1-.41,3.42,9.61,9.61,0,0,1-1.22,2.92,6.09,6.09,0,0,1-2.05,2,5.54,5.54,0,0,1-2.95.77,6.65,6.65,0,0,1-1.67-.21,6.1,6.1,0,0,1-1.49-.59,6.3,6.3,0,0,1-1-.75,5,5,0,0,1-.87-1v9.08h-1.85Zm11.38,6a8.14,8.14,0,0,0-1-2.49,5.13,5.13,0,0,0-1.59-1.52,4.39,4.39,0,0,0-2.3-.58,4.62,4.62,0,0,0-1.5.24,4.87,4.87,0,0,0-1.3.68,4.94,4.94,0,0,0-1.07,1.07,5.7,5.7,0,0,0-.76,1.4v8.75a4.83,4.83,0,0,0,.75,1.26,4.89,4.89,0,0,0,1,.95,5.79,5.79,0,0,0,1.36.62,5.11,5.11,0,0,0,1.51.22,4.26,4.26,0,0,0,2.36-.63,5.22,5.22,0,0,0,1.6-1.64,7.7,7.7,0,0,0,.92-2.41,14,14,0,0,0,.3-2.75v-.35A12.76,12.76,0,0,0,308.7,396.63Z" transform="translate(-148.27 -152.45)" fill="#f2f2f2"/><path d="M316.46,390.63h1.73l.06,2.48a5.88,5.88,0,0,1,2-1.95,5.83,5.83,0,0,1,1.46-.64,6.48,6.48,0,0,1,1.67-.22,5.77,5.77,0,0,1,2.85.67,6.31,6.31,0,0,1,2,1.85,9,9,0,0,1,1.33,3,15.79,15.79,0,0,1,.44,3.61v.35a14.42,14.42,0,0,1-.41,3.42,10.14,10.14,0,0,1-1.22,2.92,6.18,6.18,0,0,1-2.05,2,5.57,5.57,0,0,1-2.95.77,6.65,6.65,0,0,1-1.67-.21,6.09,6.09,0,0,1-2.55-1.34,5.27,5.27,0,0,1-.86-1v9.08h-1.85Zm11.37,6a7.88,7.88,0,0,0-1-2.49,5.35,5.35,0,0,0-1.59-1.52,4.39,4.39,0,0,0-2.3-.58,4.73,4.73,0,0,0-1.51.24,5.2,5.2,0,0,0-1.3.68,4.89,4.89,0,0,0-1.06,1.07,5.7,5.7,0,0,0-.76,1.4v8.75a4.83,4.83,0,0,0,.75,1.26,4.89,4.89,0,0,0,1,.95,5.79,5.79,0,0,0,1.36.62,5.06,5.06,0,0,0,1.51.22,4.26,4.26,0,0,0,2.36-.63,5.19,5.19,0,0,0,1.59-1.64,7.48,7.48,0,0,0,.93-2.41,14,14,0,0,0,.3-2.75v-.35A12.77,12.77,0,0,0,327.83,396.63Z" transform="translate(-148.27 -152.45)" fill="#f2f2f2"/></svg>